<svg xmlns="http://www.w3.org/2000/svg" xmlns:xlink="http://www.w3.org/1999/xlink" preserveAspectRatio="xMidYMid" width="29" height="29" viewBox="0 0 29 29">
  <defs>
    <style>
      .cls-1 {
        fill: #fff;
        fill-rule: evenodd;
      }
    </style>
  </defs>
  <path d="M25.525,24.860 L19.886,18.919 C21.336,17.173 22.130,14.976 22.130,12.690 C22.130,7.347 17.839,3.000 12.564,3.000 C7.289,3.000 2.998,7.347 2.998,12.690 C2.998,18.032 7.289,22.379 12.564,22.379 C14.544,22.379 16.431,21.774 18.045,20.626 L23.727,26.612 C23.964,26.861 24.284,26.999 24.626,26.999 C24.950,26.999 25.257,26.874 25.491,26.647 C25.986,26.163 26.002,25.362 25.525,24.860 ZM12.564,5.528 C16.463,5.528 19.635,8.741 19.635,12.690 C19.635,16.639 16.463,19.852 12.564,19.852 C8.665,19.852 5.493,16.639 5.493,12.690 C5.493,8.741 8.665,5.528 12.564,5.528 Z" class="cls-1"/>
</svg>
