<svg xmlns="http://www.w3.org/2000/svg" xmlns:xlink="http://www.w3.org/1999/xlink" preserveAspectRatio="xMidYMid" width="200" height="200" viewBox="0 0 200 200">
  <defs>
    <style>
      .cls-1 {
        fill: #000;
        fill-rule: evenodd;
      }
    </style>
  </defs>
  <path d="M187.897,11.000 C192.061,11.801 194.430,12.414 195.979,16.000 C197.291,17.755 197.583,19.105 198.000,22.000 C165.364,62.648 132.326,105.379 101.000,146.000 C95.499,153.345 81.341,171.533 73.588,180.435 C69.015,186.821 65.251,186.375 62.626,186.000 C56.501,181.125 22.411,140.326 2.000,116.000 C2.036,109.943 2.689,105.351 7.062,104.000 C14.106,103.759 27.000,110.000 27.000,110.000 C27.000,110.000 51.177,118.667 63.636,123.000 C74.870,113.241 108.000,82.000 108.000,82.000 C108.000,82.000 117.180,73.333 121.221,69.000 C144.858,51.036 175.910,14.485 187.897,11.000 Z" class="cls-1"/>
</svg>
