<svg xmlns="http://www.w3.org/2000/svg" xmlns:xlink="http://www.w3.org/1999/xlink" preserveAspectRatio="xMidYMid" width="27" height="39" viewBox="0 0 27 39">
  <defs>
    <style>
      .cls-1 {
        fill: #efad1c;
        fill-rule: evenodd;
      }
    </style>
  </defs>
  <g>
    <path d="M22.579,38.000 L4.421,38.000 C3.089,38.000 2.000,36.920 2.000,35.599 L2.000,10.400 C2.000,9.080 3.089,8.000 4.421,8.000 L5.632,8.000 C5.632,6.680 6.721,5.600 8.053,5.600 L9.263,5.600 C9.263,3.560 10.837,2.000 12.895,2.000 L14.105,2.000 C16.042,2.000 17.737,3.560 17.737,5.600 L18.947,5.600 C20.279,5.600 21.368,6.680 21.368,8.000 L22.579,8.000 C23.910,8.000 25.000,9.080 25.000,10.400 L25.000,35.599 C25.000,36.920 23.910,38.000 22.579,38.000 ZM20.158,8.000 C20.158,7.280 19.674,6.799 18.947,6.799 L16.526,6.799 L16.526,5.600 C16.526,4.280 15.437,3.200 14.105,3.200 L12.895,3.200 C11.563,3.200 10.474,4.280 10.474,5.600 L10.474,6.799 L8.053,6.799 C7.326,6.799 6.842,7.280 6.842,8.000 L6.842,9.200 C6.842,9.920 7.326,10.400 8.053,10.400 L18.947,10.400 C19.674,10.400 20.158,9.920 20.158,9.200 L20.158,8.000 ZM23.789,10.400 C23.789,9.680 23.184,9.200 22.579,9.200 L21.368,9.200 C21.368,10.519 20.279,11.600 18.947,11.600 L8.053,11.600 C6.721,11.600 5.632,10.519 5.632,9.200 L4.421,9.200 C3.695,9.200 3.210,9.680 3.210,10.400 L3.210,35.599 C3.210,36.320 3.816,36.800 4.421,36.800 L22.579,36.800 C23.305,36.800 23.789,36.320 23.789,35.599 L23.789,10.400 ZM6.600,23.840 L7.447,23.000 L12.047,27.560 L20.521,19.040 L21.368,19.879 L12.047,29.239 L6.600,23.840 ZM13.500,6.799 C13.166,6.799 12.895,6.531 12.895,6.200 C12.895,5.868 13.166,5.600 13.500,5.600 C13.834,5.600 14.105,5.868 14.105,6.200 C14.105,6.531 13.834,6.799 13.500,6.799 Z" class="cls-1"/>
    <path d="M23.579,38.000 L5.421,38.000 C4.089,38.000 3.000,36.920 3.000,35.599 L3.000,10.400 C3.000,9.080 4.089,8.000 5.421,8.000 L6.632,8.000 C6.632,6.680 7.721,5.600 9.053,5.600 L10.263,5.600 C10.263,3.560 11.837,2.000 13.895,2.000 L15.105,2.000 C17.042,2.000 18.737,3.560 18.737,5.600 L19.947,5.600 C21.279,5.600 22.368,6.680 22.368,8.000 L23.579,8.000 C24.910,8.000 26.000,9.080 26.000,10.400 L26.000,35.599 C26.000,36.920 24.910,38.000 23.579,38.000 ZM21.158,8.000 C21.158,7.280 20.674,6.799 19.947,6.799 L17.526,6.799 L17.526,5.600 C17.526,4.280 16.437,3.200 15.105,3.200 L13.895,3.200 C12.563,3.200 11.474,4.280 11.474,5.600 L11.474,6.799 L9.053,6.799 C8.326,6.799 7.842,7.280 7.842,8.000 L7.842,9.200 C7.842,9.920 8.326,10.400 9.053,10.400 L19.947,10.400 C20.674,10.400 21.158,9.920 21.158,9.200 L21.158,8.000 ZM24.789,10.400 C24.789,9.680 24.184,9.200 23.579,9.200 L22.368,9.200 C22.368,10.519 21.279,11.600 19.947,11.600 L9.053,11.600 C7.721,11.600 6.632,10.519 6.632,9.200 L5.421,9.200 C4.695,9.200 4.210,9.680 4.210,10.400 L4.210,35.599 C4.210,36.320 4.816,36.800 5.421,36.800 L23.579,36.800 C24.305,36.800 24.789,36.320 24.789,35.599 L24.789,10.400 ZM7.600,23.840 L8.447,23.000 L13.047,27.560 L21.521,19.040 L22.368,19.879 L13.047,29.239 L7.600,23.840 ZM14.500,6.799 C14.166,6.799 13.895,6.531 13.895,6.200 C13.895,5.868 14.166,5.600 14.500,5.600 C14.834,5.600 15.105,5.868 15.105,6.200 C15.105,6.531 14.834,6.799 14.500,6.799 Z" class="cls-1"/>
  </g>
</svg>
