<svg xmlns="http://www.w3.org/2000/svg" xmlns:xlink="http://www.w3.org/1999/xlink" preserveAspectRatio="xMidYMid" width="39" height="41" viewBox="0 0 39 41">
  <defs>
    <style>
      .cls-1 {
        fill: #efad1c;
        fill-rule: evenodd;
      }
    </style>
  </defs>
  <g>
    <path d="M36.375,40.000 L2.625,40.000 C2.279,40.000 2.000,39.717 2.000,39.366 L2.000,12.133 L2.000,5.166 C2.000,4.816 2.279,4.533 2.625,4.533 L7.000,4.533 L7.000,2.633 C7.000,2.283 7.279,2.000 7.625,2.000 L12.000,2.000 C12.346,2.000 12.625,2.283 12.625,2.633 L12.625,4.533 L26.375,4.533 L26.375,2.633 C26.375,2.283 26.654,2.000 27.000,2.000 L31.375,2.000 C31.721,2.000 32.000,2.283 32.000,2.633 L32.000,4.533 L36.375,4.533 C36.721,4.533 37.000,4.816 37.000,5.166 L37.000,12.133 L37.000,39.366 C37.000,39.717 36.721,40.000 36.375,40.000 ZM11.375,5.166 L11.375,3.266 L8.250,3.266 L8.250,5.166 L8.250,7.066 L11.375,7.066 L11.375,5.166 ZM30.750,5.166 L30.750,3.266 L27.625,3.266 L27.625,5.166 L27.625,7.066 L30.750,7.066 L30.750,5.166 ZM35.750,5.800 L32.000,5.800 L32.000,7.700 C32.000,8.050 31.721,8.333 31.375,8.333 L27.000,8.333 C26.654,8.333 26.375,8.050 26.375,7.700 L26.375,5.800 L12.625,5.800 L12.625,7.700 C12.625,8.050 12.346,8.333 12.000,8.333 L7.625,8.333 C7.279,8.333 7.000,8.050 7.000,7.700 L7.000,5.800 L3.250,5.800 L3.250,11.500 L35.750,11.500 L35.750,5.800 ZM35.750,12.766 L3.250,12.766 L3.250,38.733 L35.750,38.733 L35.750,12.766 ZM14.500,16.566 L18.875,16.566 L20.125,16.566 L24.500,16.566 L25.750,16.566 L31.375,16.566 L31.375,22.266 L31.375,23.533 L31.375,27.966 L31.375,29.233 L31.375,34.933 L25.750,34.933 L24.500,34.933 L20.125,34.933 L18.875,34.933 L14.500,34.933 L13.250,34.933 L7.625,34.933 L7.625,29.233 L7.625,27.966 L7.625,23.533 L7.625,22.266 L7.625,16.566 L13.250,16.566 L14.500,16.566 ZM25.750,33.667 L30.125,33.667 L30.125,29.233 L25.750,29.233 L25.750,33.667 ZM25.750,27.966 L30.125,27.966 L30.125,23.533 L25.750,23.533 L25.750,27.966 ZM25.750,22.266 L30.125,22.266 L30.125,17.833 L25.750,17.833 L25.750,22.266 ZM20.125,33.667 L24.500,33.667 L24.500,29.233 L20.125,29.233 L20.125,33.667 ZM20.125,27.966 L24.500,27.966 L24.500,23.533 L20.125,23.533 L20.125,27.966 ZM20.125,22.266 L24.500,22.266 L24.500,17.833 L20.125,17.833 L20.125,22.266 ZM14.500,33.667 L18.875,33.667 L18.875,29.233 L14.500,29.233 L14.500,33.667 ZM14.500,27.966 L18.875,27.966 L18.875,23.533 L14.500,23.533 L14.500,27.966 ZM14.500,22.266 L18.875,22.266 L18.875,17.833 L14.500,17.833 L14.500,22.266 ZM8.875,33.667 L13.250,33.667 L13.250,29.233 L8.875,29.233 L8.875,33.667 ZM8.875,27.966 L13.250,27.966 L13.250,23.533 L8.875,23.533 L8.875,27.966 ZM8.875,22.266 L13.250,22.266 L13.250,17.833 L8.875,17.833 L8.875,22.266 Z" class="cls-1"/>
    <path d="M37.375,40.000 L3.625,40.000 C3.279,40.000 3.000,39.717 3.000,39.366 L3.000,12.133 L3.000,5.166 C3.000,4.816 3.279,4.533 3.625,4.533 L8.000,4.533 L8.000,2.633 C8.000,2.283 8.279,2.000 8.625,2.000 L13.000,2.000 C13.346,2.000 13.625,2.283 13.625,2.633 L13.625,4.533 L27.375,4.533 L27.375,2.633 C27.375,2.283 27.654,2.000 28.000,2.000 L32.375,2.000 C32.721,2.000 33.000,2.283 33.000,2.633 L33.000,4.533 L37.375,4.533 C37.721,4.533 38.000,4.816 38.000,5.166 L38.000,12.133 L38.000,39.366 C38.000,39.717 37.721,40.000 37.375,40.000 ZM12.375,5.166 L12.375,3.266 L9.250,3.266 L9.250,5.166 L9.250,7.066 L12.375,7.066 L12.375,5.166 ZM31.750,5.166 L31.750,3.266 L28.625,3.266 L28.625,5.166 L28.625,7.066 L31.750,7.066 L31.750,5.166 ZM36.750,5.800 L33.000,5.800 L33.000,7.700 C33.000,8.050 32.721,8.333 32.375,8.333 L28.000,8.333 C27.654,8.333 27.375,8.050 27.375,7.700 L27.375,5.800 L13.625,5.800 L13.625,7.700 C13.625,8.050 13.346,8.333 13.000,8.333 L8.625,8.333 C8.279,8.333 8.000,8.050 8.000,7.700 L8.000,5.800 L4.250,5.800 L4.250,11.500 L36.750,11.500 L36.750,5.800 ZM36.750,12.766 L4.250,12.766 L4.250,38.733 L36.750,38.733 L36.750,12.766 ZM15.500,16.566 L19.875,16.566 L21.125,16.566 L25.500,16.566 L26.750,16.566 L32.375,16.566 L32.375,22.266 L32.375,23.533 L32.375,27.966 L32.375,29.233 L32.375,34.933 L26.750,34.933 L25.500,34.933 L21.125,34.933 L19.875,34.933 L15.500,34.933 L14.250,34.933 L8.625,34.933 L8.625,29.233 L8.625,27.966 L8.625,23.533 L8.625,22.266 L8.625,16.566 L14.250,16.566 L15.500,16.566 ZM26.750,33.667 L31.125,33.667 L31.125,29.233 L26.750,29.233 L26.750,33.667 ZM26.750,27.966 L31.125,27.966 L31.125,23.533 L26.750,23.533 L26.750,27.966 ZM26.750,22.266 L31.125,22.266 L31.125,17.833 L26.750,17.833 L26.750,22.266 ZM21.125,33.667 L25.500,33.667 L25.500,29.233 L21.125,29.233 L21.125,33.667 ZM21.125,27.966 L25.500,27.966 L25.500,23.533 L21.125,23.533 L21.125,27.966 ZM21.125,22.266 L25.500,22.266 L25.500,17.833 L21.125,17.833 L21.125,22.266 ZM15.500,33.667 L19.875,33.667 L19.875,29.233 L15.500,29.233 L15.500,33.667 ZM15.500,27.966 L19.875,27.966 L19.875,23.533 L15.500,23.533 L15.500,27.966 ZM15.500,22.266 L19.875,22.266 L19.875,17.833 L15.500,17.833 L15.500,22.266 ZM9.875,33.667 L14.250,33.667 L14.250,29.233 L9.875,29.233 L9.875,33.667 ZM9.875,27.966 L14.250,27.966 L14.250,23.533 L9.875,23.533 L9.875,27.966 ZM9.875,22.266 L14.250,22.266 L14.250,17.833 L9.875,17.833 L9.875,22.266 Z" class="cls-1"/>
  </g>
</svg>
