<svg xmlns="http://www.w3.org/2000/svg" xmlns:xlink="http://www.w3.org/1999/xlink" preserveAspectRatio="xMidYMid" width="46" height="45" viewBox="0 0 46 45">
  <defs>
    <style>
      .cls-1 {
        fill: #efad1c;
        fill-rule: evenodd;
      }
    </style>
  </defs>
  <g>
    <path d="M37.849,37.849 C33.883,41.815 28.609,44.000 23.000,44.000 C18.865,44.000 14.877,42.803 11.444,40.536 L3.746,43.102 C3.505,43.182 3.239,43.119 3.060,42.940 C2.880,42.760 2.817,42.495 2.898,42.254 L5.464,34.556 C3.197,31.123 2.000,27.135 2.000,23.000 C2.000,17.390 4.184,12.117 8.151,8.150 C12.117,4.184 17.391,2.000 23.000,2.000 C28.609,2.000 33.883,4.184 37.849,8.150 C41.816,12.117 44.000,17.390 44.000,23.000 C44.000,28.609 41.816,33.882 37.849,37.849 ZM23.000,3.340 C12.160,3.340 3.340,12.159 3.340,23.000 C3.340,26.976 4.522,30.806 6.757,34.077 C6.875,34.250 6.906,34.468 6.840,34.667 L4.593,41.406 L11.333,39.160 C11.402,39.137 11.473,39.126 11.544,39.126 C11.678,39.126 11.810,39.165 11.923,39.243 C15.194,41.478 19.024,42.659 23.000,42.659 C33.840,42.659 42.660,33.840 42.660,23.000 C42.660,12.159 33.840,3.340 23.000,3.340 ZM40.649,23.670 L33.765,23.670 C33.711,27.016 33.249,30.248 32.445,33.115 L36.960,33.115 C37.330,33.115 37.630,33.415 37.630,33.785 C37.630,34.155 37.330,34.455 36.960,34.455 L32.035,34.455 C31.318,36.615 30.398,38.524 29.304,40.055 C29.173,40.238 28.967,40.336 28.758,40.336 C28.623,40.336 28.487,40.295 28.369,40.211 C28.068,39.996 27.998,39.578 28.213,39.276 C29.162,37.947 29.973,36.309 30.623,34.456 L23.670,34.456 L23.670,40.649 C23.670,41.019 23.370,41.319 23.000,41.319 C22.630,41.319 22.330,41.019 22.330,40.649 L22.330,34.456 L15.377,34.456 C16.027,36.309 16.838,37.947 17.787,39.276 C18.002,39.578 17.932,39.996 17.631,40.211 C17.513,40.295 17.377,40.336 17.242,40.336 C17.033,40.336 16.827,40.238 16.696,40.055 C15.602,38.524 14.682,36.615 13.965,34.456 L9.040,34.456 C8.670,34.456 8.370,34.155 8.370,33.785 C8.370,33.415 8.670,33.115 9.040,33.115 L13.555,33.115 C12.751,30.248 12.289,27.016 12.235,23.670 L5.351,23.670 C4.981,23.670 4.681,23.370 4.681,23.000 C4.681,22.630 4.981,22.329 5.351,22.329 L12.235,22.329 C12.289,18.984 12.751,15.751 13.555,12.884 L9.040,12.884 C8.670,12.884 8.370,12.584 8.370,12.214 C8.370,11.844 8.670,11.544 9.040,11.544 L13.965,11.544 C14.681,9.385 15.602,7.476 16.695,5.945 C16.910,5.644 17.329,5.574 17.630,5.789 C17.931,6.004 18.001,6.423 17.786,6.724 C16.837,8.053 16.027,9.691 15.377,11.544 L22.330,11.544 L22.330,5.351 C22.330,4.980 22.630,4.680 23.000,4.680 C23.370,4.680 23.670,4.980 23.670,5.351 L23.670,11.544 L30.623,11.544 C29.973,9.691 29.163,8.053 28.214,6.724 C27.999,6.423 28.068,6.004 28.370,5.789 C28.671,5.574 29.089,5.644 29.304,5.945 C30.398,7.476 31.318,9.385 32.035,11.544 L36.960,11.544 C37.330,11.544 37.630,11.844 37.630,12.214 C37.630,12.584 37.330,12.884 36.960,12.884 L32.445,12.884 C33.249,15.751 33.711,18.984 33.765,22.329 L40.649,22.329 C41.019,22.329 41.319,22.629 41.319,22.999 C41.319,23.370 41.019,23.670 40.649,23.670 ZM22.330,12.884 L14.945,12.884 C14.113,15.716 13.632,18.957 13.575,22.329 L22.330,22.329 L22.330,12.884 ZM22.330,23.670 L13.575,23.670 C13.632,27.042 14.113,30.284 14.945,33.115 L22.330,33.115 L22.330,23.670 ZM31.055,12.884 L23.670,12.884 L23.670,22.329 L32.425,22.329 C32.368,18.958 31.887,15.716 31.055,12.884 ZM23.670,23.670 L23.670,33.115 L31.055,33.115 C31.887,30.284 32.368,27.042 32.425,23.670 L23.670,23.670 Z" class="cls-1"/>
    <path d="M38.849,37.849 C34.883,41.815 29.609,44.000 24.000,44.000 C19.865,44.000 15.877,42.803 12.444,40.536 L4.746,43.102 C4.505,43.182 4.239,43.119 4.060,42.940 C3.880,42.760 3.817,42.495 3.898,42.254 L6.464,34.556 C4.197,31.123 3.000,27.135 3.000,23.000 C3.000,17.390 5.184,12.117 9.151,8.150 C13.117,4.184 18.391,2.000 24.000,2.000 C29.609,2.000 34.883,4.184 38.849,8.150 C42.816,12.117 45.000,17.390 45.000,23.000 C45.000,28.609 42.816,33.882 38.849,37.849 ZM24.000,3.340 C13.160,3.340 4.340,12.159 4.340,23.000 C4.340,26.976 5.522,30.806 7.757,34.077 C7.875,34.250 7.906,34.468 7.840,34.667 L5.593,41.406 L12.332,39.160 C12.402,39.137 12.473,39.126 12.544,39.126 C12.678,39.126 12.810,39.165 12.923,39.243 C16.194,41.478 20.024,42.659 24.000,42.659 C34.840,42.659 43.660,33.840 43.660,23.000 C43.660,12.159 34.840,3.340 24.000,3.340 ZM41.649,23.670 L34.765,23.670 C34.711,27.016 34.249,30.248 33.445,33.115 L37.960,33.115 C38.330,33.115 38.630,33.415 38.630,33.785 C38.630,34.155 38.330,34.455 37.960,34.455 L33.035,34.455 C32.318,36.615 31.398,38.524 30.304,40.055 C30.173,40.238 29.967,40.336 29.758,40.336 C29.623,40.336 29.487,40.295 29.369,40.211 C29.068,39.996 28.998,39.578 29.213,39.276 C30.162,37.947 30.973,36.309 31.623,34.456 L24.670,34.456 L24.670,40.649 C24.670,41.019 24.370,41.319 24.000,41.319 C23.630,41.319 23.330,41.019 23.330,40.649 L23.330,34.456 L16.377,34.456 C17.027,36.309 17.838,37.947 18.787,39.276 C19.002,39.578 18.932,39.996 18.631,40.211 C18.513,40.295 18.377,40.336 18.242,40.336 C18.033,40.336 17.827,40.238 17.696,40.055 C16.602,38.524 15.682,36.615 14.965,34.456 L10.040,34.456 C9.670,34.456 9.370,34.155 9.370,33.785 C9.370,33.415 9.670,33.115 10.040,33.115 L14.555,33.115 C13.751,30.248 13.289,27.016 13.235,23.670 L6.351,23.670 C5.981,23.670 5.681,23.370 5.681,23.000 C5.681,22.630 5.981,22.329 6.351,22.329 L13.235,22.329 C13.289,18.984 13.751,15.751 14.554,12.884 L10.040,12.884 C9.670,12.884 9.370,12.584 9.370,12.214 C9.370,11.844 9.670,11.544 10.040,11.544 L14.965,11.544 C15.682,9.385 16.602,7.476 17.695,5.945 C17.910,5.644 18.329,5.574 18.630,5.789 C18.931,6.004 19.001,6.423 18.786,6.724 C17.837,8.053 17.027,9.691 16.377,11.544 L23.330,11.544 L23.330,5.351 C23.330,4.980 23.630,4.680 24.000,4.680 C24.370,4.680 24.670,4.980 24.670,5.351 L24.670,11.544 L31.623,11.544 C30.973,9.691 30.162,8.053 29.214,6.724 C28.999,6.423 29.068,6.004 29.370,5.789 C29.671,5.574 30.089,5.644 30.304,5.945 C31.398,7.476 32.318,9.385 33.035,11.544 L37.960,11.544 C38.330,11.544 38.630,11.844 38.630,12.214 C38.630,12.584 38.330,12.884 37.960,12.884 L33.445,12.884 C34.249,15.751 34.711,18.984 34.765,22.329 L41.649,22.329 C42.019,22.329 42.319,22.629 42.319,22.999 C42.319,23.370 42.019,23.670 41.649,23.670 ZM23.330,12.884 L15.945,12.884 C15.113,15.716 14.632,18.957 14.575,22.329 L23.330,22.329 L23.330,12.884 ZM23.330,23.670 L14.575,23.670 C14.632,27.042 15.113,30.284 15.945,33.115 L23.330,33.115 L23.330,23.670 ZM32.055,12.884 L24.670,12.884 L24.670,22.329 L33.425,22.329 C33.368,18.958 32.887,15.716 32.055,12.884 ZM24.670,23.670 L24.670,33.115 L32.055,33.115 C32.887,30.284 33.368,27.042 33.425,23.670 L24.670,23.670 Z" class="cls-1"/>
  </g>
</svg>
